<svg aria-hidden="true" style="position:absolute;width:0;height:0" xmlns="http://www.w3.org/2000/svg" overflow="hidden"><defs><symbol id="antenna" viewBox="0 0 32 32"><path fill="var(--color1, #212121)" d="M30.773 22.098l-8.443-8.505.937-4.615c.225.09.485.144.758.146h.007c1.192.014 2.17-.941 2.184-2.133s-.941-2.17-2.133-2.184c-1.192-.014-2.17.941-2.184 2.133v.026c0 .259.046.508.13.738l-.005-.015-4.96.605L8.973.161a.53.53 0 00-.376-.16.531.531 0 00-.373.155L6.711 1.66a.5335.5335 0 000 .754l.814.826c-3.153 5.798-2.129 12.978 2.519 17.663.043.041.092.074.146.098a2.986 2.986 0 00-.052.546v6.188h-6.4c-1.472.002-2.665 1.195-2.667 2.667v1.067c0 .295.239.533.533.533h24.533c.295 0 .533-.239.533-.533v-1.067c-.002-1.472-1.195-2.665-2.667-2.667h-6.4v-2.742c.915.201 1.968.317 3.047.32h.002c2.58-.003 5.005-.663 7.117-1.822l-.077.039.818.823a.534.534 0 00.377.16.531.531 0 00.373-.155l1.513-1.504a.5335.5335 0 000-.754zM23.28 6.233c.418-.415 1.093-.414 1.508.004s.414 1.093-.004 1.508c-.193.192-.459.31-.752.31h-.003c-.589-.003-1.064-.483-1.061-1.072.002-.294.122-.559.314-.751h-.002zm-1.256 3.505l-.598 2.946-1.175-1.182 1.774-1.763zm-.605-.902l-1.92 1.909-1.485-1.493 3.405-.415zM24.004 28.8c.884 0 1.6.716 1.6 1.6v.533H2.137V30.4c0-.884.716-1.6 1.6-1.6h20.267zm-7.467-2.133v1.067h-5.333v-1.067h5.333zM11.204 25.6v-4.053c0-1.294 1.196-2.347 2.667-2.347s2.667 1.053 2.667 2.347V25.6h-5.333zm6.4-1.696v-2.357c0-1.882-1.675-3.413-3.733-3.413h-.058c-1.353 0-2.54.707-3.213 1.771l-.009.016C6.533 15.647 5.62 9.276 8.312 4.034l18.602 18.708c-1.823.947-3.98 1.502-6.266 1.502-1.079 0-2.128-.124-3.136-.357l.093.018zm11.289-.684L7.836 2.039l.755-.752 7.935 7.98c.004 0 .006.007.01.01l13.115 13.191-.757.752z"/><path fill="var(--color2, #2196f3)" d="M13.876 20.267h-.005c-.884-.001-1.601.714-1.602 1.598s.714 1.601 1.598 1.602h.005c.884.001 1.601-.714 1.602-1.598s-.714-1.601-1.598-1.602zm.373 1.978a.5297.5297 0 01-.376.155h-.002a.5343.5343 0 01-.531-.536.5344.5344 0 01.53-.531c.295.002.532.241.53.536a.5333.5333 0 01-.157.375h.005z"/></symbol><symbol id="astronaut" viewBox="0 0 32 32"><path fill="var(--color2, #2196f3)" d="M31.974 4.524c-.064-.191-.227-.332-.427-.362h-.003l-1.91-.278-.855-1.731c-.179-.365-.777-.365-.956 0l-.855 1.731-1.91.278a.5352.5352 0 00-.43.359l-.001.004a.5342.5342 0 00.135.547l1.383 1.348-.326 1.903c-.034.2.048.402.212.522.087.064.195.102.313.102.091 0 .177-.023.252-.063l-.003.001 1.709-.899 1.709.899c.078.041.164.061.249.061h.001c.294 0 .533-.238.533-.533 0-.032-.003-.064-.008-.094v.003l-.326-1.903 1.383-1.348a.5331.5331 0 00.161-.382c0-.059-.009-.115-.027-.168l.001.004zm-2.463 1.327a.5331.5331 0 00-.161.382c0 .032.003.063.008.094v-.003l.191 1.114-1-.526a.5203.5203 0 00-.248-.061H28.3c-.085 0-.17.02-.249.061l-1.001.526.191-1.114a.5291.5291 0 00-.153-.472l-.81-.789 1.119-.163a.5335.5335 0 00.4-.289l.001-.003.5-1.013.5 1.013c.078.157.228.267.402.292l1.119.163-.809.789zm-3.378 14.671h-1.067v1.067h1.067v-1.067zm0 2.134h-1.067v1.067h1.067v-1.067zm1.067-1.067h-1.067v1.067H27.2v-1.067zm-2.133 0H24v1.067h1.067v-1.067zm-2.667 4.8h-1.067v1.067H22.4v-1.067zm0 2.133h-1.067v1.067H22.4v-1.067zM23.467 27.456H22.4v1.067h1.067v-1.067zm-2.134 0h-1.067v1.067h1.067v-1.067zM16 24.256h-1.067v1.067H16v-1.067zm0 2.133h-1.067v1.067H16v-1.067zm1.067-1.067H16v1.067h1.067v-1.067zm-2.134 0h-1.067v1.067h1.067v-1.067zm-9.067-19.2H4.799v1.067h1.067V6.122zm0 2.133H4.799v1.067h1.067V8.255zm1.067-1.066H5.866v1.067h1.067V7.189zm-2.133 0H3.733v1.067H4.8V7.189z"/><path fill="var(--color1, #212121)" d="M24.715 14.159c-.287-.388-.709-.637-1.188-.705-.481-.068-.956.058-1.34.352l-1.252.96-1.898 1.417-1.358-.541c2.421-1.086 4.114-3.508 4.114-6.32 0-3.823-3.123-6.933-6.961-6.933s-6.961 3.11-6.961 6.933c0 1.386.414 2.674 1.12 3.758l-2.769-.024c-.009 0-.015.004-.023.005a.5547.5547 0 00-.159.032l.004-.001c-.013.005-.026.008-.038.013-.006.003-.013.003-.019.006l-3.233 1.596c-.001 0-.001 0-.001.001l-1.893.911a.4288.4288 0 00-.064.036l.001-.001c-.755.502-1.012 1.489-.598 2.295.22.429.595.745 1.056.889.161.052.347.083.539.083.29 0 .577-.071.839-.211l1.388-.738 2.264-1.169 1.357-.008L2.2 22.211c0 .001-.001.001-.002.001L.859 23.545c-.316.315-.49.732-.49 1.178s.174.863.49 1.179c.325.323.752.485 1.179.485s.854-.162 1.18-.485l1.314-1.309 1.741-1.3.901.897-1.762 1.754c0 .001-.001.001-.002.001l-1.339 1.333c-.316.315-.49.732-.49 1.178s.174.863.49 1.179c.325.323.753.485 1.18.485s.855-.162 1.18-.485l3.482-3.467c.001-.001.001-.001.001-.002l1.01-1-.004-.004c.006-.006.015-.009.022-.015l5.166-5.658 3.471.494c.025.004.05.005.075.005.065 0 .127-.015.187-.038.018-.006.033-.015.05-.023.019-.01.039-.015.058-.027l3.213-2.133c.012-.008.018-.021.029-.029.013-.01.029-.014.041-.026l1.271-1.191c.662-.62.753-1.635.212-2.362zM2.13 17.77a.714.714 0 01-.558.052.7167.7167 0 01-.427-.358.714.714 0 01.214-.902l1.314-.632.449 1.313-.992.527zm3.498-1.828l-1.548.8-.439-1.283 2.027-1.001-.04 1.484zm15.099-6.62c0 .918-.219 1.785-.599 2.559l-4.181-1.899c-.044-.573-.341-1.075-.788-1.388l1.464-4.86c2.378.756 4.105 2.974 4.105 5.588zm-11.789 0c0-3.235 2.644-5.867 5.894-5.867.253 0 .5.021.745.052l-1.432 4.754c-.019-.001-.037-.006-.057-.006-1.033 0-1.873.837-1.873 1.867s.84 1.867 1.873 1.867c.694 0 1.294-.383 1.618-.945l3.862 1.755c-1.075 1.446-2.795 2.39-4.737 2.39-3.25 0-5.894-2.632-5.894-5.867zm5.956.8c0 .441-.362.8-.806.8s-.806-.359-.806-.8c0-.441.362-.8.806-.8s.806.359.806.8zM2.465 25.146c-.236.234-.619.234-.854.001-.114-.114-.176-.263-.176-.423s.062-.309.176-.421l.962-.959.851.848-.959.955zm3.214 3.734c-.236.234-.619.235-.855.001-.114-.114-.176-.263-.176-.423s.062-.309.176-.421l.963-.959.852.848-.96.955zm3.481-3.469c-.001 0-.001 0-.002.001l-1.765 1.76-.852-.848 1.763-1.756c.001-.001.001-.001.002-.001.04-.04.065-.088.09-.135.007-.014.02-.026.026-.04.017-.041.019-.085.026-.129.003-.025.014-.047.014-.073 0-.036-.013-.07-.02-.106-.006-.032-.006-.065-.019-.095-.02-.05-.055-.094-.091-.138-.01-.012-.014-.027-.025-.038h-.001c-.001 0-.001-.002-.001-.002l-1.607-1.6c-.017-.017-.039-.024-.058-.038a.5067.5067 0 00-.087-.058c-.03-.015-.061-.024-.093-.033a.5073.5073 0 00-.103-.02.5002.5002 0 00-.095.005.5307.5307 0 00-.104.02c-.034.011-.063.027-.094.045-.02.011-.042.015-.061.029L4.23 23.485l-.901-.897 2.399-2.386 4.361 4.289-.928.919zm6.819-7.017c-.015-.002-.03.004-.045.003-.008 0-.017-.001-.026-.001-.031 0-.062.003-.092.008h.003a.5364.5364 0 00-.088.021c-.034.012-.065.028-.097.047s-.059.039-.084.062c-.013.011-.028.017-.04.029l-4.698 5.146-4.328-4.257 2.833-2.818c.209-.208.21-.546.002-.755a.5314.5314 0 00-.381-.156v-.001l-2.219.013.028-1.607 3.104.027c1.265 1.294 3.029 2.101 4.981 2.101.437 0 .864-.045 1.279-.123.04.032.079.065.13.085l2.41.96.152.758.178.885-3.003-.427zm4.041.178l-.313-1.558 1.446-1.08.947 1.257-2.08 1.381zm3.754-2.831l-.838.785-.931-1.236.831-.637c.155-.119.351-.168.543-.143.193.027.364.128.48.284.217.292.18.699-.085.947z"/><path fill="var(--color1, #212121)" d="M13.602 18.544l-2.143-2.133c-.207-.207-.545-.207-.753 0l-2.142 2.133a.532.532 0 00-.157.378c0 .142.056.278.157.378l2.142 2.133c.104.103.241.155.377.155s.273-.052.376-.155l2.143-2.133a.532.532 0 00.157-.378c0-.142-.057-.278-.157-.378zm-2.519 1.759l-1.387-1.381 1.387-1.381 1.387 1.381-1.387 1.381zm6.081-15.232l-.258 1.036c.071.018 1.738.452 1.738 2.149h1.067c0-2.017-1.666-2.965-2.547-3.185zm2.547 4.251h-1.067v1.067h1.067V9.322z"/></symbol><symbol id="clock" viewBox="0 0 32 32"><path fill="var(--color1, #212121)" d="M31.297 15.301C31.295 6.849 24.442-.002 15.989 0S.686 6.855.688 15.308c.001 6.658 4.307 12.551 10.649 14.576.061.019.124.029.187.029.126 0 .245-.035.346-.095l-.003.002a.639.639 0 00.282-.352l.001-.005 3.865-12.25c1.057-.005 1.909-.866 1.903-1.923s-.866-1.909-1.923-1.903c-.299.001-.581.072-.831.196l.011-.005-5.106-5.107a.6372.6372 0 00-.902.016.637.637 0 000 .886l5.103 5.109c-.392.799-.168 1.764.536 2.309l-3.683 11.673C3.845 25.783.119 17.71 2.8 10.432S13.554-.572 20.832 2.109c7.278 2.681 11.004 10.754 8.323 18.032-1.345 3.581-4.003 6.406-7.374 7.938l-.088.036-.398-1.874a.638.638 0 00-.756-.492.639.639 0 00-.293.149l.001-.001-3.837 3.426a.6366.6366 0 00-.052.9c.076.085.174.149.283.184l4.899 1.563c.335.108.694-.077.802-.412a.6375.6375 0 00.031-.195c0-.047-.005-.092-.015-.136l.001.004-.391-1.839c5.664-2.388 9.342-7.942 9.329-14.089zm-15.305-.637c.352 0 .638.286.638.638s-.286.638-.638.638c-.352 0-.638-.285-.638-.638s.285-.638.638-.638zm2.101 14.864l2.184-1.948.603 2.84-2.787-.892z"/><path fill="var(--color2, #2196f3)" d="M15.354 3.185V4.46c0 .352.285.638.638.638s.638-.285.638-.638V3.185c0-.352-.286-.638-.638-.638s-.638.286-.638.638zM3.876 14.664c-.352 0-.638.286-.638.638s.285.638.638.638h1.275c.352 0 .638-.285.638-.638s-.285-.638-.638-.638H3.876zm24.232 1.275c.352 0 .638-.285.638-.638s-.285-.638-.638-.638h-1.275c-.352 0-.638.286-.638.638s.286.638.638.638h1.275z"/></symbol><symbol id="diagram" viewBox="0 0 32 32"><path fill="var(--color2, #2196f3)" d="M14.925 14.965h1.066v4.798h-1.066v-4.797zm4.265 2.132h1.066v2.665H19.19v-2.665zm-8.529 1.599h1.066v1.066h-1.066v-1.066zm-3.198-.533h1.066v1.599H7.463v-1.599z"/><path fill="var(--color1, #212121)" d="M1.599 28.291h25.587c.883 0 1.599-.716 1.599-1.599V24.56c0-.883-.716-1.599-1.599-1.599h-.533V9.668L29.681 6.8c.703.346 1.553.136 2.013-.499s.396-1.508-.152-2.068-1.42-.644-2.065-.198a1.609 1.609 0 00-.542 2.002L26.654 8.2V6.97c0-.883-.716-1.599-1.599-1.599H3.733c-.883 0-1.599.716-1.599 1.599v15.992h-.533c-.883 0-1.599.716-1.599 1.599v2.132c0 .883.716 1.599 1.599 1.599zM30.384 4.837c.294 0 .533.239.533.533s-.239.533-.533.533c-.294 0-.533-.239-.533-.533s.239-.533.533-.533zM3.198 6.969c0-.294.239-.533.533-.533h21.322c.294 0 .533.239.533.533v2.239l-1.066 1.013V8.035c0-.294-.239-.533-.533-.533H4.797c-.294 0-.533.239-.533.533v13.326c0 .294.239.533.533.533h19.19c.294 0 .533-.239.533-.533v-9.674l1.066-1.01v12.284H3.198V6.969zm4.798 6.93c-.721-.002-1.354.478-1.546 1.174s.105 1.433.725 1.801c.62.368 1.41.276 1.928-.226l1.853.93a.5341.5341 0 00.636-.122v-.001l3.939-4.431 3.872 2.901a.5355.5355 0 00.687-.04l3.365-3.188v8.131H5.331V8.568h18.124v2.66L19.684 14.8l-3.904-2.927a.5332.5332 0 00-.718.072l-3.993 4.493-1.493-.746c.01-.056.017-.123.02-.19v-.003c0-.883-.716-1.599-1.599-1.599zm.533 1.599c0 .294-.239.533-.533.533s-.533-.239-.533-.533c0-.294.239-.533.533-.533s.533.239.533.533zm3.198 8.528h5.331v.533c0 .294-.239.533-.533.533h-4.264a.5335.5335 0 01-.533-.533v-.533zm-10.661.534c0-.294.239-.533.533-.533h9.062v.533c0 .883.716 1.599 1.599 1.599h4.264c.883 0 1.599-.716 1.599-1.599v-.533h9.062c.294 0 .533.239.533.533v2.132c0 .294-.239.533-.533.533H1.598a.5335.5335 0 01-.533-.533V24.56z"/></symbol><symbol id="envelope" viewBox="0 0 43 32"><path  d="M38.667.334H4c-2.205 0-4 1.675-4 3.734v22.404c0 2.059 1.794 3.734 4 3.734h34.667c2.206 0 4-1.675 4-3.734V4.068c0-2.059-1.794-3.734-4-3.734zm0 2.489c.184 0 .359.035.52.1l-.01-.003-17.844 14.437L3.488 2.92c.152-.061.327-.096.511-.096h34.667zm0 24.893H4c-.736 0-1.333-.558-1.333-1.245V5.549L20.46 19.944c.235.19.538.304.868.304h.012c.329 0 .632-.115.87-.306l-.003.002L40 5.549v20.922c0 .687-.598 1.245-1.333 1.245z"/></symbol><symbol id="facebook" viewBox="0 0 32 32"><path d="M21.329 5.313h2.921V.225C23.746.156 22.013 0 19.994 0c-4.212 0-7.097 2.649-7.097 7.519V12H8.249v5.688h4.648V32h5.699V17.689h4.46l.708-5.688h-5.169V8.082c.001-1.644.444-2.769 2.735-2.769z"/></symbol><symbol id="iconsend" viewBox="0 0 32 32"><path fill="var(--color5, #fff)" d="M32 0L0 18l10.227 3.788L26 7 14.002 23.186l.01.004-.012-.004V32l5.735-6.691L27 28l5-28z"/></symbol><symbol id="instagram" viewBox="0 0 32 32"><path d="M31.969 9.408c-.075-1.7-.35-2.869-.744-3.882-.406-1.075-1.032-2.038-1.851-2.838A7.8895 7.8895 0 0026.596.862l-.054-.018C25.523.45 24.36.175 22.66.1 20.947.019 20.403 0 16.059 0s-4.888.019-6.595.094c-1.7.075-2.869.35-3.882.744-1.075.406-2.038 1.031-2.838 1.85A7.8895 7.8895 0 00.918 5.466L.9 5.52C.506 6.539.231 7.701.156 9.402c-.081 1.713-.1 2.257-.1 6.602s.019 4.888.094 6.595c.075 1.7.35 2.869.744 3.882.427 1.11 1.056 2.057 1.849 2.837l.001.001c.78.792 1.724 1.419 2.778 1.826l.054.018c1.019.394 2.182.669 3.882.744 1.706.075 2.25.094 6.595.094s4.888-.019 6.595-.094c1.7-.075 2.869-.35 3.882-.744 2.157-.85 3.832-2.525 4.663-4.627l.019-.055c.394-1.019.669-2.182.744-3.882.075-1.707.094-2.251.094-6.595s-.006-4.888-.081-6.595zm-2.882 13.065c-.069 1.563-.331 2.407-.55 2.969-.551 1.4-1.639 2.487-3.002 3.026l-.036.013c-.563.219-1.413.481-2.969.55-1.688.075-2.194.094-6.464.094s-4.782-.019-6.464-.094c-1.563-.069-2.407-.331-2.969-.55-.694-.256-1.325-.663-1.838-1.194a4.9797 4.9797 0 01-1.183-1.804l-.011-.034c-.219-.563-.481-1.413-.55-2.969-.075-1.688-.094-2.194-.094-6.464s.019-4.782.094-6.464c.069-1.563.331-2.407.55-2.969.256-.694.663-1.325 1.2-1.838a4.9797 4.9797 0 011.804-1.183l.034-.011c.563-.219 1.413-.481 2.969-.55 1.688-.075 2.194-.094 6.464-.094 4.276 0 4.782.019 6.464.094 1.563.069 2.407.331 2.969.55.694.256 1.325.662 1.838 1.194.531.519.938 1.144 1.194 1.838.219.563.481 1.413.55 2.969.075 1.688.094 2.194.094 6.464s-.019 4.77-.094 6.458z"/><path d="M16.059 7.783c-4.538 0-8.22 3.682-8.22 8.22s3.682 8.22 8.22 8.22c4.539 0 8.22-3.682 8.22-8.22s-3.682-8.22-8.22-8.22zm0 13.552c-2.944 0-5.332-2.388-5.332-5.332s2.388-5.332 5.332-5.332 5.332 2.388 5.332 5.332-2.388 5.332-5.332 5.332zM26.524 7.458c0 1.06-.859 1.919-1.919 1.919s-1.919-.859-1.919-1.919.859-1.919 1.919-1.919 1.919.859 1.919 1.919z"/></symbol><symbol id="linkedin" viewBox="0 0 32 32"><path d="M31.992 32v-.001H32V20.263c0-5.741-1.236-10.164-7.948-10.164-3.227 0-5.392 1.771-6.276 3.449h-.093v-2.913h-6.364v21.364h6.627V21.42c0-2.785.528-5.479 3.977-5.479 3.399 0 3.449 3.179 3.449 5.657v10.401h6.62zM.528 10.636h6.635V32H.528V10.636zM3.843 0C1.722 0 0 1.721 0 3.843s1.721 3.879 3.843 3.879c2.121 0 3.843-1.757 3.843-3.879C7.685 1.722 5.963 0 3.843 0z"/></symbol><symbol id="logo1" viewBox="0 0 30 32"><path  d="M4 0l4.872 4.468h13.59v12.465l4.872 4.468V0H4.001z"/><path  d="M0 4.28v20.79h22.667v-8.264L9.016 4.285.001 4.28zm18.349 17.749H3.587V8.047H4.63v13.035h13.719v.947zM6.527 28.991l.545-1.123h.456l-.794 1.497v.872h-.413v-.872l-.796-1.497h.457l.545 1.123zm2.341.695H7.95l-.192.552H7.33l.895-2.37h.369l.897 2.37h-.43l-.194-.552zm-.803-.332h.687l-.343-.983-.343.983zm2.426.244c0-.11.03-.21.09-.301.06-.092.177-.201.353-.327-.092-.116-.157-.215-.194-.296-.036-.081-.054-.16-.054-.236 0-.186.056-.332.169-.439.113-.109.265-.163.456-.163.173 0 .314.051.423.153.111.101.166.226.166.376v.004c0 .1-.028.193-.076.272l.001-.002c-.05.082-.132.165-.246.247l-.161.117.457.54c.066-.13.099-.275.099-.435h.343c0 .292-.068.531-.205.718l.348.412h-.459l-.133-.158c-.169.127-.371.19-.605.19s-.422-.062-.563-.186c-.14-.125-.21-.287-.21-.487zm.784.356c.133 0 .258-.044.374-.133l-.518-.61-.05.036c-.13.099-.195.212-.195.339 0 .11.035.199.106.267s.165.103.283.103zm-.218-1.526c0 .091.056.206.168.343l.181-.124.05-.041c.067-.06.101-.136.101-.23 0-.062-.023-.114-.07-.158-.047-.044-.106-.067-.177-.067-.077 0-.138.026-.184.078s-.068.118-.068.197zm4.305 1.038c-.024.253-.117.45-.28.592-.163.141-.379.212-.649.212-.189 0-.355-.045-.5-.133-.143-.09-.254-.218-.332-.383s-.119-.356-.122-.575v-.221c0-.224.04-.42.119-.591s.193-.302.34-.394c.149-.092.32-.138.514-.138.262 0 .472.071.632.213s.252.343.278.602h-.41c-.02-.17-.069-.293-.15-.368-.079-.076-.196-.114-.35-.114-.179 0-.317.066-.413.197-.095.13-.144.322-.146.575v.21c0 .256.046.451.137.586s.227.202.404.202c.162 0 .283-.036.365-.109s.133-.194.155-.363h.41zm2.261-.351c0 .232-.04.436-.12.612-.08.175-.195.309-.345.404-.149.093-.32.14-.514.14-.192 0-.364-.047-.514-.14-.15-.094-.266-.228-.348-.402-.081-.174-.123-.374-.124-.601v-.133c0-.231.041-.435.122-.612.082-.177.198-.312.347-.405.15-.094.321-.142.514-.142s.364.047.513.14c.15.092.265.226.347.4.081.174.123.376.124.607v.132zm-.412-.124c0-.263-.05-.464-.15-.604-.099-.14-.239-.21-.422-.21-.178 0-.317.07-.418.21-.1.139-.151.336-.153.591v.137c0 .26.05.462.151.604.102.142.243.213.423.213.182 0 .322-.069.42-.208.099-.139.148-.342.148-.609v-.124z"/></symbol><symbol id="logo2" viewBox="0 0 25 32"><path  d="M10.447 1.806h.084c.156 0 .324.016.49.03.807.058 1.552.175 2.274.348l-.095-.019V.403c-.652-.172-1.42-.299-2.207-.356l-.042-.002c-.288-.022-.595-.036-.909-.044h-.263C8.172.007 6.617.219 5.136.612l.128-.029c-1.816.46-3.411 1.128-4.875 1.995l.085-.046v17.475c1.312-.729 2.832-1.338 4.431-1.75l.135-.029c1.123-.3 2.434-.51 3.78-.586l.052-.002h.051c.191-.01.42-.017.65-.019h.006v-1.79c-1.78.024-3.493.264-5.129.695l.147-.033c-.602.157-1.185.325-1.731.513l-.623.211V3.592l.266-.128c1.89-.918 4.096-1.512 6.424-1.649l.047-.002c.008-.001.018-.001.028-.001s.02 0 .029.001h-.001c.248-.012.497-.019.741-.019h.28c.129.003.258.006.388.014z"/><path d="M14.837 3.651c-.409 0-.814-.014-1.205-.044-.467-.034-.947-.091-1.401-.167-.363-.061-.638-.119-.91-.184l.096.019V20.55c.995.257 2.137.404 3.314.404h.117-.006c1.607-.007 3.162-.218 4.643-.609l-.128.029c1.817-.461 3.412-1.129 4.877-1.995l-.085.047V1.263c-1.312.728-2.831 1.338-4.429 1.751l-.136.03c-1.423.381-3.057.602-4.743.609h-.004zm6.908.299l.623-.21v13.63l-.266.128c-.903.442-1.962.834-3.065 1.118l-.119.026c-1.221.329-2.624.521-4.07.527h-.004c-.411 0-.819-.017-1.214-.052l-.427-.038V5.062l.497.033c.361.024.735.034 1.141.034 1.841-.007 3.622-.248 5.32-.696l-.147.033c.777-.203 1.355-.38 1.924-.576l-.193.058zM1.685 25.977a.915.915 0 00-.311-.212l-.006-.002a.9.9 0 00-.343-.067c-.012 0-.023 0-.035.001h.002-.014c-.139 0-.272.028-.393.078l.007-.003a.9312.9312 0 00-.311.205.8986.8986 0 00-.199.307l-.002.006c-.045.111-.072.24-.072.375v.012-.001 2.335c-.006.165.026.328.092.479.055.12.135.226.234.313.093.079.203.135.321.166.114.032.231.048.349.049h.009c.134 0 .26-.03.373-.084l-.005.002a.99.99 0 00.311-.216c.084-.088.153-.192.201-.306l.002-.007a.9335.9335 0 00.075-.368v-.266h-.61v.222c0 .07-.013.137-.037.198l.001-.004a.3669.3669 0 01-.089.131.396.396 0 01-.125.067l-.003.001a.4275.4275 0 01-.127.022.3093.3093 0 01-.162-.025l.002.001a.319.319 0 01-.126-.1l-.001-.001a.5477.5477 0 01-.081-.289c0-.008 0-.017.001-.025v.001-2.177-.023c0-.119.028-.231.077-.33l-.002.004a.321.321 0 01.127-.113l.002-.001c.039-.019.084-.03.132-.03.013 0 .026.001.039.002H.986h.012c.051 0 .1.012.143.033l-.002-.001c.048.024.089.057.119.099l.001.001c.063.082.101.187.101.3v.013-.001.202h.604v-.238-.01c0-.143-.027-.281-.077-.406l.003.007a.9679.9679 0 00-.204-.329zm3.625-.027a1.083 1.083 0 00-.694-.257c-.131.001-.256.025-.372.068l.007-.002a.986.986 0 00-.323.192l.001-.001a.9667.9667 0 00-.234.321l-.002.006a1.074 1.074 0 00-.089.431v.022-.001 2.268c0 .155.033.303.092.436l-.003-.007c.055.12.136.227.237.313a.939.939 0 00.322.197c.117.043.24.065.364.066.131 0 .256-.024.372-.068l-.007.002c.127-.047.237-.114.331-.198l-.001.001a.958.958 0 00.228-.307l.002-.006c.056-.127.089-.274.089-.43v-.03.002-2.239-.021c0-.156-.033-.304-.092-.438l.003.007a1.027 1.027 0 00-.23-.327zm-.285 3.019c.001.01.001.022.001.034 0 .114-.047.216-.123.289a.4455.4455 0 01-.287.105c-.11 0-.21-.04-.288-.105l.001.001a.4007.4007 0 01-.123-.29c0-.012.001-.024.002-.036v.002-2.239c-.001-.01-.001-.022-.001-.034 0-.114.047-.216.123-.289a.4455.4455 0 01.287-.105c.11 0 .21.04.288.105l-.001-.001c.076.073.123.176.123.29 0 .012-.001.024-.002.036v-.002 2.239zm5.047 1V25.73h-.587l-.771 2.244h-.011l-.777-2.244h-.581v4.239h.606V27.39h.011l.593 1.823h.302l.598-1.823h.011v2.579h.606zm3.441-3.942a.839.839 0 00-.337-.23l-.006-.002c-.124-.042-.267-.066-.416-.066h-.024.001-.9v4.239h.604v-1.656h.311c.188.009.376-.031.545-.116a.8868.8868 0 00.329-.32l.002-.004c.067-.106.115-.23.138-.363l.001-.006c.021-.134.033-.287.033-.444v-.04.002c.001-.021.001-.045.001-.069 0-.19-.022-.375-.063-.552l.003.016a.906.906 0 00-.223-.39zm-.312 1.293a.5417.5417 0 01-.057.224l.001-.003a.3442.3442 0 01-.154.148l-.002.001a.6092.6092 0 01-.253.054c-.011 0-.022 0-.033-.001h.002-.276v-1.441h.311c.008 0 .018-.001.028-.001.089 0 .172.02.248.055l-.004-.002c.062.036.111.09.141.154l.001.002c.033.075.051.155.053.236v.282c0 .099.006.2 0 .291h-.006zm3.173-1.59h-.495l-.934 4.239h.604l.177-.911h.823l.177.911h.604l-.957-4.239zm-.557 2.751l.297-1.537h.011l.296 1.537h-.604zm4.46-.198h-.011l-.912-2.554h-.581v4.239h.604v-2.549h.012l.923 2.549h.568v-4.239h-.604v2.554zm3.691-2.553l-.486 1.685h-.012l-.486-1.685h-.64l.83 2.447v1.792h.604v-1.792l.83-2.447h-.64zM0 31.166h.291v.817h.198v-.817h.29v-.167H.001v.167zm2.447-.167l-.381.984h.21l.081-.224h.392l.084.224h.215l-.391-.984h-.21zm-.031.594l.134-.365.134.365h-.268zm2.45.027h.227v.127a.3778.3778 0 01-.233.083h-.014a.2466.2466 0 01-.194-.094.41.41 0 01-.074-.235c0-.008 0-.015.001-.023v.001c0-.219.095-.329.283-.329.006-.001.013-.001.021-.001.045 0 .086.014.12.038h-.001c.04.029.07.07.082.118v.001l.195-.038c-.042-.192-.181-.289-.417-.289h-.013a.492.492 0 00-.331.127.4818.4818 0 00-.111.17l-.001.003a.4794.4794 0 00-.031.169c0 .013 0 .025.001.038v-.002.023c0 .132.048.253.127.347l-.001-.001c.087.089.208.145.342.145.011 0 .022 0 .033-.001h-.001.016c.155 0 .296-.06.401-.157v-.388h-.427v.166zm2.471-.621h-.199v.984h.69v-.167h-.49v-.817zm2.089 0h-.199v.984h.199v-.984zm2.043.657l-.403-.657h-.193v.984h.185v-.643l.395.643h.198v-.984h-.182v.657zm1.846-.107h.49v-.167h-.49v-.216h.528v-.167h-.727v.984h.747v-.167h-.548v-.266zm4.477-.162h-.388v-.388h-.198v.984h.198v-.43h.388v.43h.198v-.984h-.198v.388zm1.857.162h.492v-.167h-.492v-.216h.529v-.167h-.727v.984h.746v-.167h-.548v-.266zm2.519 0c.171-.027.258-.117.258-.274a.233.233 0 00-.096-.219h-.001a.555.555 0 00-.25-.059c-.013 0-.027 0-.04.001h.002-.417v.984h.198v-.412h.055c.039 0 .075.008.108.023l-.002-.001c.029.018.053.042.07.071l.001.001.215.313h.237l-.12-.192a.7042.7042 0 00-.215-.235l-.002-.002zm-.199-.136h-.146v-.247h.156a.5154.5154 0 01.205.024l-.004-.001c.027.024.043.058.043.096 0 .043-.021.08-.052.104a.5387.5387 0 01-.165.025c-.013 0-.025 0-.038-.001h.002zm2.098.136h.49v-.167h-.49v-.216h.529v-.167h-.729v.984h.747v-.167h-.548v-.266z"/></symbol><symbol id="logo3" viewBox="0 0 31 32"><path  d="M4.835 30.852c.012 0 .023.003.034.007h-.001c.011.005.02.011.028.018l.157.159c-.122.128-.268.23-.432.299l-.008.003c-.174.069-.375.109-.585.109-.014 0-.028 0-.042-.001h.002-.031c-.2 0-.391-.037-.567-.105l.011.004c-.173-.067-.32-.164-.443-.286a1.2603 1.2603 0 01-.283-.433l-.003-.009c-.063-.163-.1-.351-.1-.548v-.019-.019c0-.198.04-.386.111-.558l-.004.01c.074-.173.176-.319.303-.441.132-.122.288-.22.461-.284l.01-.003c.175-.064.376-.101.586-.101h.02-.001.036c.189 0 .37.034.537.096l-.011-.003c.155.062.298.148.421.255l-.131.17a.1184.1184 0 01-.033.03.0874.0874 0 01-.045.013h-.008a.1199.1199 0 01-.057-.018l-.071-.045-.098-.058a.9609.9609 0 00-.124-.054l-.008-.002a1.1655 1.1655 0 00-.17-.044l-.008-.001a1.206 1.206 0 00-.215-.018h-.019.001-.015c-.151 0-.295.028-.428.079l.008-.003a.9788.9788 0 00-.341.214.9845.9845 0 00-.219.333l-.002.007c-.051.129-.08.277-.08.433v.016-.001c-.002.155.025.309.08.456.048.125.122.24.218.338.09.092.201.164.325.21.128.049.265.074.404.072.08.001.16-.004.239-.014a.9022.9022 0 00.367-.123l-.004.002c.059-.036.109-.073.156-.113l-.002.001c.02-.017.046-.028.074-.029zm4.527-.8v.017c0 .197-.039.384-.109.555l.004-.01c-.069.171-.169.317-.295.436h-.001c-.129.123-.283.22-.454.284l-.009.003c-.177.064-.382.101-.596.101s-.418-.037-.608-.105l.013.004c-.179-.068-.332-.165-.461-.288l.001.001a1.2918 1.2918 0 01-.295-.433l-.003-.009c-.067-.167-.106-.361-.106-.564s.039-.396.11-.574l-.004.011c.072-.173.173-.32.298-.443.129-.118.282-.212.451-.274l.009-.003c.177-.065.382-.103.596-.103s.418.038.608.107l-.012-.004c.174.065.332.163.462.288.129.126.23.274.296.436.073.181.108.373.106.566zm-.412 0v-.025c0-.153-.027-.3-.078-.436l.003.009a.9474.9474 0 00-.21-.339.9175.9175 0 00-.325-.211l-.006-.002c-.129-.047-.278-.074-.433-.074s-.304.027-.442.077l.009-.003a.9343.9343 0 00-.331.213.9208.9208 0 00-.21.332l-.002.006c-.047.135-.075.29-.075.452s.027.317.078.462l-.003-.01c.044.125.116.24.212.338.092.092.205.165.331.212.129.046.278.072.433.072s.304-.026.442-.075l-.009.003c.129-.049.24-.121.331-.212a.962.962 0 00.208-.332l.002-.007c.047-.127.075-.273.075-.426v-.027.001zm3.5.474l.041.101c.016-.036.029-.069.045-.101.018-.04.035-.072.053-.104l-.002.004 1.001-1.68c.02-.029.037-.047.057-.052s.044-.009.068-.009h.015-.001.296v2.733h-.351v-2.095c-.001-.014-.001-.03-.001-.047s.001-.033.002-.049v.002l-1.007 1.704a.165.165 0 01-.058.062h-.001a.1712.1712 0 01-.085.023H12.462a.164.164 0 01-.085-.023h.001a.1507.1507 0 01-.058-.062v-.001l-1.037-1.715v2.194h-.339v-2.728h.31c.024 0 .048.003.07.01h-.002c.024.011.043.029.055.052v.001l1.023 1.682c.018.028.036.06.05.094l.001.004zm3.769-.136v1.024h-.392v-2.729h.906c.162 0 .319.022.469.063l-.012-.003c.127.033.244.091.345.17.084.071.151.161.194.263l.002.005c.046.111.069.23.067.349v.011c0 .122-.027.239-.075.343l.002-.005c-.05.109-.122.2-.21.272l-.001.001a.964.964 0 01-.34.179l-.007.002c-.132.04-.284.064-.441.064h-.033l-.473-.007zm0-.293h.487c.104 0 .204-.015.298-.044l-.007.002a.6704.6704 0 00.221-.118l-.001.001a.4851.4851 0 00.132-.178l.001-.003c.03-.066.047-.142.047-.223v-.007c.001-.009.001-.019.001-.029a.496.496 0 00-.041-.197l.001.003a.5338.5338 0 00-.136-.186l-.001-.001c-.15-.108-.338-.16-.527-.146h-.474v1.125zm5.267 1.321h-.315a.142.142 0 01-.081-.026.1788.1788 0 01-.051-.062v-.001l-.267-.66h-1.338l-.276.66a.1478.1478 0 01-.049.061.1397.1397 0 01-.083.027h-.314l1.176-2.733h.408l1.192 2.733zm-1.94-1.015h1.105l-.466-1.113c-.031-.07-.061-.156-.085-.244l-.003-.013-.045.143c-.016.049-.03.087-.046.124l.003-.009-.462 1.111zm3.634-1.706c.024.012.043.029.059.049l1.715 2.06v-2.122h.351v2.733h-.201a.1763.1763 0 01-.076-.017h.001a.2039.2039 0 01-.062-.05l-1.713-2.059c.001.014.001.03.001.047s-.001.033-.002.049v-.002 2.031h-.351v-2.733h.213c.024 0 .046.005.067.013h-.001zm5.013 1.633v1.085h-.392V30.33l-1.084-1.646h.359c.029 0 .055.009.077.024.021.017.039.038.052.06l.001.001.678 1.062c.027.045.051.087.071.127s.035.078.049.116l.051-.118a.969.969 0 01.069-.129l-.002.004.668-1.069a.3165.3165 0 01.051-.058.125.125 0 01.078-.027h.36l-1.086 1.654zm-15.937-6.233c.171.02.343.036.517.051 2.644-1.092 4.881-2.879 6.431-5.138s2.344-4.889 2.284-7.563l-2.914-2.69c.593 2.846.315 5.788-.8 8.498s-3.026 5.078-5.518 6.842z"/><path d="M11.216 23.972l.078.014c2.662-1.758 4.692-4.212 5.827-7.046s1.322-5.917.538-8.85l-4.151-3.831c1.679 3.149 2.355 6.674 1.949 10.164s-1.877 6.802-4.242 9.55zm14.076-9.367c-.705 2.937-2.418 5.587-4.884 7.554-.678.548-1.437 1.057-2.24 1.497l-.08.04c2.008-.545 3.853-1.508 5.394-2.815s2.736-2.924 3.493-4.724l-1.683-1.552z"/><path  d="M24.632 14.173l-2.397-2.212c-.046 2.522-.823 4.987-2.25 7.139s-3.452 3.911-5.865 5.095h.012c.567 0 1.126-.032 1.676-.095l-.068.006c2.255-.85 4.247-2.201 5.799-3.934s2.614-3.794 3.093-5.998zm-13.07-11.53L8.703 0C6.147.912 3.949 2.514 2.396 4.599S.008 9.151 0 11.681c.01 2.795 1.029 5.507 2.896 7.707s4.476 3.762 7.414 4.44c2.622-2.949 4.158-6.593 4.383-10.403s-.871-7.586-3.131-10.781zm19.676 11.123c-.01-3.316-1.442-6.494-3.982-8.838s-5.983-3.666-9.575-3.676c-1.66-.002-3.306.281-4.854.834l17.506 16.159c.599-1.428.906-2.947.905-4.479z"/></symbol><symbol id="logo4" viewBox="0 0 64 32"><path  d="M9.964 9.702h-.002c-1.818 0-3.291 1.351-3.291 3.019v.002c0 1.667 1.473 3.019 3.291 3.019h.002c1.818 0 3.291-1.351 3.291-3.019v-.002c0-1.667-1.473-3.019-3.291-3.019zm24.292-.965c-.005-2.315-1.01-4.535-2.795-6.172S27.257.005 24.732 0C22.207.004 19.786.926 18 2.564s-2.791 3.858-2.797 6.174v12.769s19.05-1.946 19.052-12.767v-.002zM0 25.697c.005 1.611.704 3.155 1.946 4.294s2.925 1.782 4.682 1.786c1.756-.005 3.439-.647 4.681-1.786s1.942-2.682 1.947-4.293v-8.885S0 18.168 0 25.696zm6.628 1.592c-.343 0-.679-.093-.964-.268s-.508-.424-.639-.714c-.131-.291-.166-.611-.099-.92s.232-.592.475-.815c.243-.223.552-.374.889-.436.102-.02.219-.031.338-.031.239 0 .467.044.677.126l-.013-.004c.317.12.588.324.779.586s.293.57.293.884v.004c0 .22-.048.428-.134.616l.004-.009c-.087.194-.215.37-.376.518a1.756 1.756 0 01-.552.343l-.012.004c-.197.077-.425.122-.664.122h-.002v-.006zm13.462-.885h-1.317v1.36h-.686v-3.329h2.168v.556h-1.482v.86h1.317v.553zm3.297-.228c0 .328-.058.615-.174.862s-.282.437-.498.572c-.215.134-.462.201-.741.201-.276 0-.522-.066-.738-.199s-.384-.322-.503-.567c-.119-.247-.179-.53-.181-.851v-.165c0-.328.059-.616.176-.864.119-.25.286-.441.501-.574.216-.134.463-.201.741-.201s.524.067.739.201c.216.133.383.324.501.574.119.248.178.536.178.862v.149zm-.695-.151c0-.349-.063-.614-.188-.796s-.303-.272-.535-.272c-.23 0-.408.09-.533.27-.125.178-.188.441-.19.787v.162c0 .34.063.604.187.791s.305.281.54.281c.23 0 .407-.09.53-.27.123-.181.186-.445.188-.791v-.162zm2.92.866c0-.13-.046-.229-.137-.297-.091-.07-.256-.143-.494-.219-.238-.078-.426-.154-.565-.229-.378-.204-.567-.479-.567-.825 0-.18.05-.34.151-.48.102-.142.248-.252.437-.332.191-.079.404-.119.64-.119.238 0 .45.043.636.13.186.085.33.207.432.364.104.157.155.335.155.535h-.686c0-.152-.048-.271-.144-.354-.096-.085-.231-.128-.405-.128-.168 0-.298.036-.391.107-.093.07-.139.163-.139.279 0 .108.054.199.162.272.11.073.271.142.483.206.39.117.674.263.853.437s.268.39.268.649c0 .288-.109.514-.327.679-.218.163-.511.245-.88.245-.256 0-.489-.046-.7-.139-.21-.095-.371-.223-.483-.386-.11-.163-.165-.352-.165-.567h.688c0 .367.219.551.659.551.163 0 .29-.033.382-.098.091-.067.137-.16.137-.279zm3.661-1.9h-1.02v2.774h-.686v-2.774h-1.006v-.556h2.712v.556zm2.396 1.331h-1.317v.892h1.546v.551h-2.232v-3.329h2.227v.556h-1.541v.793h1.317v.537zm1.864.224h-.547v1.219H32.3v-3.329h1.237c.393 0 .697.088.91.263s.32.423.32.743c0 .227-.049.417-.149.569-.098.151-.246.271-.446.361l.72 1.36v.032h-.736l-.624-1.219zm-.547-.556h.553c.172 0 .306-.043.4-.13.095-.088.142-.21.142-.364 0-.157-.045-.28-.135-.37-.088-.09-.225-.135-.409-.135h-.551v.999zm4.158.602v1.173h-.686v-3.329h1.299c.25 0 .47.046.659.137.191.091.337.222.439.391.102.168.153.359.153.574 0 .326-.112.584-.336.773-.223.188-.531.281-.926.281h-.601zm0-.556h.613c.181 0 .319-.043.414-.128.096-.085.144-.207.144-.366 0-.163-.048-.295-.144-.396s-.229-.152-.398-.155h-.629v1.045zm4.339.286h-1.317v.892h1.546v.551H39.48v-3.329h2.227v.556h-1.541v.793h1.317v.537zm3.183-1.331h-1.02v2.774h-.686v-2.774h-1.006v-.556h2.712v.556zm2.397 1.331h-1.317v.892h1.546v.551H45.06v-3.329h2.227v.556h-1.541v.793h1.317v.537zm1.863.224h-.547v1.219h-.686v-3.329h1.237c.393 0 .697.088.91.263s.32.423.32.743c0 .227-.05.417-.149.569-.098.151-.246.271-.446.361l.72 1.36v.032h-.736l-.624-1.219zm-.546-.556h.553c.172 0 .306-.043.4-.13.094-.088.142-.21.142-.364 0-.157-.045-.28-.135-.37-.088-.09-.225-.135-.409-.135h-.551v.999zm4.031.901c0-.13-.046-.229-.137-.297-.091-.07-.256-.143-.494-.219-.238-.078-.426-.154-.565-.229-.378-.204-.567-.479-.567-.825 0-.18.05-.34.151-.48.102-.142.248-.252.437-.332.191-.079.404-.119.64-.119.238 0 .45.043.636.13.186.085.33.207.432.364.104.157.155.335.155.535h-.686c0-.152-.048-.271-.144-.354-.096-.085-.231-.128-.405-.128-.168 0-.298.036-.391.107-.093.07-.139.163-.139.279 0 .108.054.199.162.272.11.073.271.142.483.206.39.117.675.263.853.437s.267.39.267.649c0 .288-.109.514-.327.679-.218.163-.511.245-.88.245-.256 0-.489-.046-.7-.139-.21-.095-.371-.223-.483-.386-.11-.163-.165-.352-.165-.567h.688c0 .367.22.551.659.551.163 0 .29-.033.382-.098.091-.067.137-.16.137-.279z"/></symbol><symbol id="logo5" viewBox="0 0 40 32"><path  d="M3.055 26.742c.157.194.24.438.236.688.001.016.001.035.001.053 0 .153-.031.298-.088.43l.003-.007c-.066.155-.161.286-.28.392l-.001.001c-.262.2-.594.321-.954.321-.038 0-.075-.001-.112-.004h.005H0v-4.361h1.827c.031-.002.067-.003.103-.003.341 0 .657.11.913.296l-.004-.003c.118.099.211.224.273.366s.089.296.081.45c.001.014.001.029.001.045 0 .235-.08.452-.215.624l.002-.002a.9913.9913 0 01-.549.34l-.007.001c.247.045.471.177.63.373zm-2.187-.658h.781a.736.736 0 00.499-.146l-.002.001a.518.518 0 00.169-.383c0-.015-.001-.03-.002-.045v.002c.001-.011.001-.024.001-.037 0-.153-.064-.291-.167-.389a.7501.7501 0 00-.514-.146h.003-.768v1.144zm1.354 1.672c.114-.1.186-.246.186-.408 0-.012 0-.024-.001-.037v.002c.001-.009.001-.02.001-.031a.55.55 0 00-.189-.416l-.001-.001a.7993.7993 0 00-.48-.159c-.018 0-.035.001-.053.002h.002-.819v1.199h.83c.014.001.031.001.047.001a.817.817 0 00.479-.154l-.002.002zm4.568.861l-1.016-1.704h-.382v1.704h-.874v-4.361h1.655c.034-.003.073-.004.113-.004.396 0 .759.142 1.041.377l-.003-.002c.245.251.397.595.397.974 0 .313-.103.601-.276.834l.003-.004a1.344 1.344 0 01-.781.442l-.008.001 1.082 1.743H6.79zm-1.399-2.299h.715c.496 0 .745-.22.745-.66.001-.011.001-.024.001-.037 0-.176-.07-.336-.184-.453a.7664.7664 0 00-.495-.18.802.802 0 00-.07.003h.003-.724l.008 1.327zm6.177 1.421H9.826l-.308.878h-.917l1.6-4.312h.991l1.593 4.312h-.917l-.301-.878zm-.233-.66l-.637-1.841-.637 1.841h1.273zm6.215 1.538h-.868l-1.946-2.965v2.965h-.866v-4.361h.866l1.946 2.983v-2.983h.868v4.361zm4.952-1.044c-.182.33-.45.593-.775.764l-.01.005c-.335.174-.732.276-1.153.276-.024 0-.047 0-.071-.001h.003-1.545v-4.361h1.545c.02-.001.044-.001.068-.001.42 0 .816.099 1.167.276l-.015-.007c.335.172.603.433.78.751l.005.009c.171.333.272.727.272 1.144 0 .417-.1.811-.278 1.158l.007-.014zm-.993-.104c.239-.278.384-.642.384-1.04 0-.382-.136-.751-.384-1.041a1.496 1.496 0 00-.992-.374c-.033 0-.066.001-.098.003h.004-.603v2.823h.603a1.501 1.501 0 001.088-.372l-.002.001zM12.111 0s11.201 4.246 10.963 10.39v10.392S11.881 16.534 12.115 10.39L12.111 0zm20.943 18.349c2.005-1.402 4.428-2.345 7.049-2.627l.068-.006v-3.253c-2.943 1.139-5.44 3.204-7.117 5.886z"/><path  d="M31.783 19.329c1.731-3.5 4.733-6.202 8.388-7.548V2.407S24.219 8.455 24.557 17.204v14.795s.711-.27 1.829-.778c0-.473 0-.95.051-1.43.33-4.062 2.253-7.826 5.347-10.464z"/><path  d="M30.266 24.825c.093-1.118.291-2.149.586-3.138l-.028.108a14.3227 14.3227 0 00-3.335 8.085c-.023.281-.036.562-.042.852a46.367 46.367 0 003.068-1.623c-.191-.909-.3-1.953-.3-3.023 0-.444.019-.884.056-1.318l-.004.057zm.634.053c-.031.359-.049.777-.049 1.2 0 .947.09 1.874.261 2.772l-.015-.092c4.358-2.618 9.255-6.664 9.067-11.553v-.426a14.276 14.276 0 00-8.292 3.89c-.501 1.234-.847 2.664-.968 4.157l-.003.052z"/></symbol><symbol id="logo6" viewBox="0 0 63 32"><path  d="M31.815 14.712c-.297-.42-.439-.917-.406-1.417V11.24c0-.63.134-1.109.403-1.436s.731-.491 1.386-.489c.615 0 1.052.139 1.31.418.282.356.419.791.387 1.229v.483h-1.101v-.489c.001-.019.001-.042.001-.064 0-.146-.012-.29-.035-.43l.002.015a.469.469 0 00-.157-.284c-.113-.082-.255-.121-.399-.111-.151-.01-.3.031-.419.117-.096.084-.16.194-.182.314a2.44 2.44 0 00-.044.468v.043-.002 2.494c-.002.028-.003.061-.003.094 0 .221.053.43.148.613l-.004-.008c.056.075.13.133.216.168l.003.001c.064.027.139.043.218.043.023 0 .046-.001.069-.004h-.003c.141.011.281-.03.39-.113.09-.082.147-.188.164-.303.022-.135.035-.29.035-.448 0-.018 0-.036-.001-.054v.003-.506h1.101v.462c.031.457-.103.911-.381 1.292-.253.305-.684.458-1.317.458s-1.112-.163-1.383-.502zm4.584.021c-.278-.32-.417-.786-.417-1.403v-2.162c0-.61.139-1.072.417-1.386s.743-.47 1.395-.468c.647 0 1.11.156 1.388.468.278.314.419.776.419 1.386v2.162c0 .61-.141 1.079-.424 1.401s-.743.483-1.383.483-1.114-.163-1.395-.481zm1.907-.519c.085-.166.134-.361.134-.568 0-.025-.001-.05-.002-.075v.003-2.647a1.2372 1.2372 0 00-.133-.634l.003.007a.5215.5215 0 00-.225-.172.572.572 0 00-.215-.042c-.027 0-.053.002-.078.005h.003a.5802.5802 0 00-.295.038l.004-.001a.5272.5272 0 00-.225.171l-.001.001c-.085.161-.134.352-.134.554 0 .026.001.051.002.077v-.003 2.659c-.002.023-.002.05-.002.076 0 .206.05.399.138.57l-.003-.007c.064.067.141.12.228.157l.005.002c.089.037.185.056.283.056s.194-.019.283-.056a.692.692 0 00.232-.158v-.012zm2.619-4.837h1.185l.891 3.988.912-3.988h1.153l.116 5.756h-.852l-.091-4.001-.88 4.001h-.684l-.912-4.015-.084 4.015h-.861l.107-5.756zm5.586 0h1.846c1.064 0 1.595.545 1.595 1.634 0 1.044-.56 1.565-1.68 1.564h-.629v2.558h-1.139l.007-5.756zm1.577 2.46c.113.013.227.004.335-.028.112-.033.21-.086.293-.155l-.001.001a.9756.9756 0 00.164-.65c.001-.019.001-.042.001-.064 0-.163-.02-.321-.059-.471l.003.013a.4484.4484 0 00-.084-.159l.001.001a.4883.4883 0 00-.141-.115l-.003-.001a1.1041 1.1041 0 00-.511-.092h.003-.442v1.72h.442zm3.507-2.46h1.224l1.256 5.756h-1.062l-.248-1.327h-1.092l-.255 1.327H50.34l1.256-5.756zm1.046 3.763l-.426-2.416-.426 2.416h.852zm2.448-3.763h.798l1.527 3.284V9.377h.946v5.756h-.759l-1.536-3.428v3.428h-.978l.002-5.756zm5.486 3.562l-1.269-3.553h1.069l.775 2.283.727-2.283h1.046l-1.253 3.553v2.195h-1.094v-2.195zm-27 4.712v.301h-.93v2.339h-.39v-2.339h-.934v-.301h2.254zm2.915 2.64h-.309a.1214.1214 0 01-.077-.026.1397.1397 0 01-.05-.06v-.001l-.269-.627h-1.29l-.269.627a.1726.1726 0 01-.041.071.132.132 0 01-.078.025h-.308l1.14-2.64h.397l1.153 2.63zm-1.887-.98h1.076l-.456-1.074c-.029-.067-.058-.15-.081-.235l-.003-.014c-.016.05-.03.098-.043.14l-.041.111-.451 1.072zm3.851.721c.071.003.143.003.214 0 .068-.007.13-.018.191-.033l-.008.002c.065-.015.12-.031.173-.051l-.009.003c.05-.019.1-.042.153-.065v-.594h-.461a.093.093 0 01-.029-.005h.001a.0854.0854 0 01-.028-.016.0684.0684 0 01-.017-.021.0606.0606 0 01-.006-.024V19.023h.884v1.012c-.065.043-.139.085-.217.121l-.01.004c-.071.033-.155.064-.242.087l-.011.003c-.08.023-.177.042-.276.053l-.009.001c-.099.011-.213.017-.329.017H38.4c-.201 0-.394-.036-.572-.102l.011.004c-.176-.066-.328-.159-.457-.277l.001.001a1.2775 1.2775 0 01-.291-.41l-.003-.008a1.3761 1.3761 0 01-.105-.53v-.019-.016c0-.193.038-.376.106-.544l-.003.01c.066-.156.166-.299.294-.418.13-.119.285-.212.456-.274.175-.062.378-.098.589-.098h.023-.001.003c.111 0 .219.008.326.024l-.012-.002c.093.014.184.036.271.067s.163.066.234.108l-.006-.003c.07.041.136.087.198.138l-.109.163a.1034.1034 0 01-.036.036h-.001a.1011.1011 0 01-.052.014.1407.1407 0 01-.071-.021h.001a1.4849 1.4849 0 01-.117-.066l.006.003a.9891.9891 0 00-.146-.069l-.007-.002a1.2635 1.2635 0 00-.201-.057l-.009-.001a1.5764 1.5764 0 00-.275-.023h-.016.001-.014c-.153 0-.299.027-.435.076l.009-.003a.9512.9512 0 00-.335.209c-.091.091-.163.2-.21.322l-.002.006c-.048.131-.076.282-.076.44s.028.309.079.449l-.003-.009c.05.124.128.237.228.332.093.091.207.162.333.209.145.046.299.063.451.052zm3.633-.042h1.244v.301h-1.625v-2.64h.39l-.009 2.339zm2.539.301h-.39v-2.64h.39v2.64zm1.45-2.628c.023.012.043.028.059.048l1.666 1.99c-.001-.014-.002-.03-.002-.047s.001-.033.002-.049v.002-1.967h.34v2.651H47.932c-.026 0-.05-.006-.072-.016h.001a.2123.2123 0 01-.061-.05l-1.664-1.988v2.053h-.326v-2.64h.203c.023 0 .045.005.065.013h-.001zm4.934-.012v.291h-1.381v.872h1.119v.28h-1.119v.901h1.381v.291h-1.782v-2.634h1.782zM10.171 1.346l17.305 4.507v15.793l-17.305-4.505V1.346zM9.061 0v17.908l19.522 5.086V5.088L9.061 0z"/><path  d="M19.525 31.307L0 26.217V8.311l19.525 5.088v17.908z"/><path d="M9.385 1.143l17.079 4.45-7.263 6.664L2.12 7.805l7.266-6.662zM9.061 0L0 8.311l19.525 5.088 9.059-8.311L9.062 0zm11.562 30.299l7.961-7.303-7.961-2.076v9.379z"/></symbol><symbol id="smartphone" viewBox="0 0 21 32"><path d="M18.133.13H3.2C1.435.13 0 1.47 0 3.117v25.889c0 1.647 1.435 2.987 3.2 2.987h14.933c1.764 0 3.2-1.34 3.2-2.987V3.117c0-1.647-1.436-2.987-3.2-2.987zM3.2 2.121h14.933c.589 0 1.067.446 1.067.996v20.91H2.133V3.117c0-.549.478-.996 1.067-.996zm14.933 27.881H3.2c-.589 0-1.067-.446-1.067-.996v-2.987H19.2v2.987c0 .549-.478.996-1.067.996z"/><path fill="var(--color3, #757575)" d="M5.021 27.306c.417.389.417 1.02 0 1.409s-1.092.389-1.508 0c-.417-.389-.417-1.02 0-1.409s1.092-.389 1.508 0z"/></symbol><symbol id="twitter" viewBox="0 0 32 32"><path d="M32 6.078c-1.19.522-2.458.868-3.78 1.036 1.36-.812 2.398-2.088 2.886-3.626-1.268.756-2.668 1.29-4.16 1.588C25.742 3.794 24.026 3 22.154 3c-3.632 0-6.556 2.948-6.556 6.562 0 .52.044 1.02.152 1.496-5.454-.266-10.28-2.88-13.522-6.862-.566.982-.898 2.106-.898 3.316 0 2.272 1.17 4.286 2.914 5.452-1.054-.02-2.088-.326-2.964-.808v.072c0 3.188 2.274 5.836 5.256 6.446-.534.146-1.116.216-1.72.216-.42 0-.844-.024-1.242-.112.85 2.598 3.262 4.508 6.13 4.57-2.214 1.744-5.044 2.798-8.12 2.798h-.015.001c-.538 0-1.054-.024-1.57-.09C2.906 27.93 6.35 29 10.064 29c12.072 0 18.672-10 18.672-18.668 0-.29-.01-.57-.024-.848C30.014 8.56 31.108 7.406 32 6.078z"/></symbol><symbol id="check-icon" viewBox="0 0 37 32"><path fill="var(--color1, #fff)" d="M15.104 12.999l-4.636-4.423-1.579 1.495L15.104 16 28.445 3.273l-1.568-1.495-11.773 11.221z"/><path fill="none" stroke="var(--color1, #fff)" stroke-width=".3556" d="M10.59 8.447l-.122-.117-1.837 1.74 6.473 6.175L28.702 3.272l-1.825-1.741-11.773 11.221-4.513-4.306z"/></symbol><symbol id="close-icon" viewBox="0 0 32 32"><path d="M32 3.223L28.777 0 16 12.777 3.223 0 0 3.223 12.777 16 0 28.777 3.223 32 16 19.223 28.777 32 32 28.777 19.223 16 32 3.223z"/></symbol><symbol id="mail-icon" viewBox="0 0 43 32"><path d="M37.333 0h-32c-2.2 0-3.98 1.8-3.98 4l-.02 24c0 2.2 1.8 4 4 4h32c2.2 0 4-1.8 4-4V4c0-2.2-1.8-4-4-4zm-.8 8.5l-14.14 8.84c-.64.4-1.48.4-2.12 0L6.133 8.5c-.5-.32-.8-.86-.8-1.44 0-1.34 1.46-2.14 2.6-1.44l13.4 8.38 13.4-8.38c1.14-.7 2.6.1 2.6 1.44 0 .58-.3 1.12-.8 1.44z"/></symbol><symbol id="nameicon" viewBox="0 0 32 32"><path fill="var( )" d="M16 16c4.42 0 8-3.58 8-8s-3.58-8-8-8-8 3.58-8 8 3.58 8 8 8zm0 4c-5.34 0-16 2.68-16 8v2c0 1.1.9 2 2 2h28c1.1 0 2-.9 2-2v-2c0-5.32-10.66-8-16-8z"/></symbol><symbol id="telephone-icon" viewBox="0 0 32 32"><path fill="var( )" d="M27.419 20.852l-4.201-.48c-1.009-.116-2.002.232-2.713.943l-3.044 3.044C12.78 21.977 8.942 18.156 6.56 13.458l3.06-3.06c.711-.711 1.059-1.704.943-2.713l-.48-4.168C9.885 1.846 8.479.589 6.791.589H3.929C2.06.589.505 2.144.621 4.013c.877 14.126 12.174 25.407 26.284 26.284 1.869.116 3.424-1.439 3.424-3.308v-2.862c.016-1.671-1.241-3.077-2.911-3.275z"/></symbol><symbol id="icon-check" viewBox="0 0 32 32"><path fill="var( )" stroke="var(--color1, #fff)" stroke-width=".4267" d="M6.308 16.537l-.147-.14-2.205 2.088.162.155 7.605 7.255 16.318-15.567-2.19-2.089-14.128 13.465-5.416-5.166z"/></symbol></defs></svg>